<svg width="86" height="102" viewBox="0 0 86 102" fill="none" xmlns="http://www.w3.org/2000/svg">
<mask id="mask0_109_3" style="mask-type:alpha" maskUnits="userSpaceOnUse" x="0" y="0" width="86" height="78">
<rect width="86" height="77.456" fill="#D9D9D9"/>
</mask>
<g mask="url(#mask0_109_3)">
<path d="M107.68 40.1511V-39.616H171.706H235.732V40.1511V119.918H171.706H107.68V40.1511ZM130.599 95.2095C131.152 95.1386 132.129 94.8943 132.484 94.7382C133.339 94.362 133.832 94.0393 134.437 93.4594C134.903 93.0126 135.448 92.2576 135.517 91.9623C135.524 91.93 135.579 91.7661 135.638 91.5981C135.741 91.3041 135.883 90.6773 135.853 90.6496C135.826 90.6251 133.639 90.1246 133.552 90.1231C133.505 90.1223 132.989 90.0118 132.406 89.8776L131.346 89.6337L131.303 89.8447C131.217 90.2693 130.945 90.7114 130.621 90.9557C130.45 91.084 130.214 91.2196 130.214 91.189C130.214 91.1804 130.129 91.1959 130.025 91.2236C129.807 91.2817 129.401 91.2885 129.182 91.2378C128.855 91.1625 128.509 90.965 128.291 90.7291C127.893 90.2991 127.806 89.9882 127.806 88.9932C127.806 87.9936 127.884 87.7348 128.327 87.2564C128.677 86.8781 129.125 86.7198 129.754 86.7527C130.258 86.7792 130.718 87.0368 131.009 87.4557C131.137 87.6387 131.276 87.9956 131.311 88.2294C131.325 88.323 131.355 88.3995 131.378 88.3995C131.401 88.3995 131.84 88.3026 132.353 88.1841C132.867 88.0657 133.321 87.9686 133.363 87.9685C133.405 87.9685 133.858 87.8717 134.369 87.7537C134.881 87.6357 135.419 87.5223 135.564 87.5017C135.71 87.481 135.844 87.4545 135.864 87.4428C135.914 87.4117 135.865 87.1088 135.742 86.6924C135.541 86.0114 135.381 85.6902 134.973 85.147C134.598 84.6469 133.845 83.9638 133.451 83.766C133.38 83.7307 133.185 83.6276 133.017 83.5368C131.91 82.9388 130.455 82.6501 129.082 82.7559C128.447 82.8048 128.248 82.8381 127.537 83.0137C127.03 83.1388 126.889 83.1914 126.351 83.4568C125.377 83.9364 124.65 84.539 124.138 85.2901C124.031 85.4479 123.926 85.5948 123.907 85.6167C123.8 85.7346 123.546 86.3199 123.425 86.7283C123.206 87.467 123.167 87.8339 123.171 89.1507C123.173 90.1337 123.183 90.3341 123.245 90.6416C123.463 91.722 123.963 92.656 124.73 93.413C125.236 93.9125 125.544 94.1354 126.189 94.468C126.985 94.8788 127.658 95.0957 128.489 95.2097C128.971 95.2758 130.082 95.2757 130.599 95.2097V95.2095ZM140.205 94.1226L140.367 93.5568H141.661H142.955L143.147 94.1228L143.339 94.6889H145.761C147.094 94.6889 148.184 94.6789 148.184 94.6667C148.184 94.6544 147.016 92.1384 145.59 89.0754C143.276 84.1082 142.978 83.4875 142.831 83.3315C142.549 83.0305 142.071 82.87 141.658 82.9372C141.233 83.0063 140.819 83.2914 140.629 83.6457C140.535 83.8207 135.821 94.6262 135.821 94.6666C135.821 94.6789 136.771 94.6888 137.932 94.6887L140.043 94.6883L140.205 94.1226ZM140.672 91.2521C140.672 91.1954 141.659 88.2198 141.678 88.2198C141.698 88.2198 142.58 91.1885 142.578 91.2477C142.577 91.2801 140.672 91.2845 140.672 91.2521ZM153.071 93.6504V92.612L153.871 92.617C154.525 92.6211 154.725 92.6101 154.969 92.5566C156.571 92.2049 157.797 91.0674 158.347 89.4212C158.67 88.4566 158.728 87.2622 158.513 86.0119C158.356 85.0986 157.933 84.2655 157.397 83.8131C156.201 82.805 154.411 82.6321 150.02 83.1007C149.558 83.15 149.166 83.199 149.149 83.2094C149.132 83.2199 149.118 85.8071 149.118 88.9587V94.6889H151.095H153.071V93.6504ZM153.036 88.0496V86.6891L153.306 86.4751C153.63 86.2187 154.113 85.9326 154.311 85.8791C154.509 85.8257 154.766 85.8571 154.898 85.9508C155.166 86.142 155.28 86.6494 155.179 87.2061C155.027 88.0456 154.493 88.5977 153.062 89.395C153.048 89.4033 153.036 88.7978 153.036 88.0496ZM165.291 92.433V90.1772L166.751 86.7457C167.554 84.8583 168.219 83.2777 168.228 83.2332L168.246 83.1524H166.485C165.12 83.1524 164.717 83.1625 164.689 83.1973C164.669 83.222 164.448 83.7355 164.197 84.3384C163.946 84.9413 163.728 85.4467 163.714 85.4617C163.699 85.4766 163.477 84.9672 163.219 84.3296L162.751 83.1703L160.621 83.1611L158.49 83.1518L158.507 83.233C158.516 83.2776 159.165 84.8538 159.948 86.7357L161.373 90.1573V92.4231V94.6889H163.332H165.291V92.433ZM173.197 93.6504V92.612L173.997 92.617C174.651 92.6211 174.851 92.6101 175.095 92.5566C176.697 92.2049 177.923 91.0674 178.473 89.4212C178.796 88.4566 178.854 87.2622 178.639 86.0119C178.482 85.0986 178.059 84.2655 177.523 83.8131C176.327 82.805 174.537 82.6321 170.147 83.1007C169.684 83.15 169.292 83.199 169.275 83.2094C169.258 83.2199 169.244 85.8071 169.244 88.9587V94.6889H171.221H173.197V93.6504ZM173.162 88.0496V86.6891L173.432 86.4751C173.757 86.2187 174.239 85.9326 174.437 85.8791C174.635 85.8257 174.892 85.8571 175.024 85.9508C175.292 86.142 175.406 86.6494 175.305 87.2061C175.153 88.0456 174.62 88.5977 173.188 89.395C173.174 89.4033 173.162 88.7978 173.162 88.0496ZM182.254 94.1226L182.416 93.5568H183.71H185.004L185.196 94.1228L185.388 94.6889H187.81C189.143 94.6889 190.233 94.6789 190.233 94.6667C190.233 94.6544 189.065 92.1384 187.639 89.0754C185.325 84.1082 185.027 83.4875 184.88 83.3315C184.598 83.0305 184.12 82.87 183.707 82.9372C183.282 83.0063 182.868 83.2914 182.678 83.6457C182.584 83.8207 177.87 94.6262 177.87 94.6666C177.87 94.6789 178.82 94.6888 179.981 94.6887L182.092 94.6883L182.254 94.1226ZM182.721 91.2521C182.721 91.1954 183.708 88.2198 183.727 88.2198C183.747 88.2198 184.629 91.1885 184.627 91.2477C184.626 91.2801 182.721 91.2845 182.721 91.2521ZM195.839 92.433V90.1772L197.299 86.7457C198.102 84.8583 198.767 83.2777 198.777 83.2332L198.795 83.1524H197.034C195.668 83.1524 195.265 83.1625 195.237 83.1973C195.217 83.222 194.996 83.7355 194.745 84.3384C194.494 84.9413 194.277 85.4467 194.262 85.4617C194.248 85.4766 194.025 84.9672 193.768 84.3296L193.3 83.1703L191.169 83.1611L189.038 83.1518L189.055 83.233C189.064 83.2776 189.713 84.8538 190.497 86.7357L191.922 90.1573V92.4231V94.6889H193.881H195.839V92.433ZM148.298 80.6057C153.055 80.593 156.956 80.5733 156.968 80.5618C157.002 80.5273 156.749 79.6536 156.599 79.2894C156.39 78.781 156.174 78.428 155.88 78.1153C155.536 77.7481 155.256 77.6038 154.743 77.5287C153.675 77.3724 150.523 77.2418 147.015 77.2086C145.413 77.1934 145.392 77.1908 145.188 76.9856C145.032 76.8282 144.973 76.6855 144.973 76.4653C144.973 76.1181 145.196 75.8398 145.542 75.7553C145.621 75.7359 145.807 75.7101 145.955 75.6979C146.674 75.6384 148.293 75.2271 149.367 74.8311C153.146 73.4376 155.664 71.1304 156.661 68.1478C157.483 65.6915 157.281 62.8674 156.109 60.4148C154.915 57.918 152.876 55.9499 150.34 54.848C149.617 54.534 149.508 54.4708 149.388 54.2991C149.293 54.1628 149.28 54.1125 149.28 53.8979C149.28 53.6832 149.293 53.6333 149.388 53.4994C149.447 53.4152 149.568 53.3073 149.657 53.2596C149.97 53.092 150.331 53.188 151.443 53.7336C153.205 54.5976 154.658 55.7589 155.88 57.2789C158.152 60.1056 159.09 63.7717 158.425 67.2313C157.912 69.8996 156.419 72.224 154.095 73.9707C153.313 74.5587 152.266 75.1814 151.346 75.6055C151.159 75.6921 150.992 75.7735 150.976 75.7863C150.961 75.7991 151.284 75.8209 151.695 75.8347C152.654 75.8668 153.961 75.9512 154.581 76.021C155.44 76.1179 155.867 76.2537 156.377 76.5932C156.616 76.7521 157.087 77.1913 157.195 77.3566L157.249 77.438H160.12C161.699 77.438 162.991 77.4285 162.991 77.4169C162.991 77.4052 162.823 77.1424 162.618 76.8329C161.01 74.4079 159.991 71.699 159.634 68.9023C159.484 67.7254 159.467 66.031 159.594 64.9492C160.002 61.4725 161.35 58.3777 163.671 55.5911C164.375 54.7466 165.696 53.4523 165.992 53.3179C166.435 53.1165 166.961 53.4139 167.007 53.8911C167.039 54.2273 167.007 54.272 166.045 55.2269C164.731 56.5298 163.998 57.4507 163.179 58.8275C161.175 62.1943 160.514 66.1205 161.306 69.9627C161.808 72.3998 162.889 74.7816 164.439 76.8628C164.638 77.1295 164.875 77.4287 164.967 77.5277C165.059 77.6266 165.211 77.8092 165.305 77.9333C165.704 78.4597 167.029 79.74 167.86 80.4011L168.11 80.6007H174.881H181.653L181.633 80.0347C181.611 79.4093 181.55 79.1188 181.358 78.7079C181.218 78.4078 181.032 78.178 180.823 78.0455C180.537 77.864 179.837 77.6783 179.078 77.5823C178.707 77.5353 177.515 77.4746 177.018 77.4773C176.725 77.4788 176.65 77.4666 176.509 77.3937C176.303 77.2877 176.162 77.0904 176.092 76.8091C175.937 76.1824 175.751 74.9013 175.678 73.9537C175.631 73.3374 175.631 71.8145 175.678 71.1846C175.872 68.5723 176.541 66.1367 177.706 63.7935C178.451 62.2962 179.22 61.1206 180.314 59.8041C180.779 59.2439 181.459 58.5292 181.621 58.4288C182.133 58.1127 182.802 58.5562 182.707 59.1486C182.671 59.3758 182.606 59.4725 182.2 59.9013C181.113 61.0519 180.19 62.3134 179.383 63.7521C179.28 63.9355 179.255 63.9578 179.139 63.9677C179.022 63.9777 179.005 63.9931 178.966 64.1226C178.942 64.2016 178.703 64.7596 178.435 65.3625C178.167 65.9653 177.916 66.5637 177.876 66.6922C177.837 66.8207 177.773 67.0067 177.733 67.1055C177.465 67.783 177.122 69.5278 177 70.8432C176.939 71.5013 176.94 73.7035 177.001 74.3293C177.05 74.8223 177.211 76.0106 177.244 76.1173C177.26 76.1704 177.309 76.1803 177.558 76.181C178.044 76.1823 179.108 76.2774 179.733 76.3755C180.419 76.4831 180.601 76.4913 180.601 76.4148C180.601 76.3477 181.11 76.5197 181.474 76.7098C182.101 77.0377 182.646 77.7687 182.907 78.6327L182.991 78.9109L187.335 78.9112L191.68 78.9116L191.66 78.3456C191.638 77.7202 191.578 77.4297 191.385 77.0188C191.245 76.7187 191.059 76.4889 190.85 76.3564C190.564 76.1749 189.865 75.9892 189.105 75.8932C188.734 75.8463 187.542 75.7855 187.045 75.7882C186.34 75.792 186.162 75.5646 185.975 74.4192C185.791 73.2976 185.882 72.58 186.405 71.0373C187.951 66.4753 188.799 62.2464 189.126 57.4739C189.2 56.3922 189.188 52.4574 189.107 51.3822C188.903 48.6645 188.54 46.2277 187.984 43.858C187.803 43.0885 187.793 42.9199 187.879 42.1047C188.018 40.79 188.148 40.3082 188.52 39.7258C188.608 39.5884 188.637 39.5158 188.607 39.5072C188.582 39.5002 188.35 39.4686 188.091 39.4371C185.607 39.1348 183.742 38.1934 182.633 36.683C182.193 36.0835 181.898 35.2733 181.748 34.2579C181.684 33.8186 181.68 33.5439 181.679 29.7757C181.679 27.1953 181.693 25.597 181.718 25.3012C181.743 25.0126 181.802 24.6657 181.877 24.3707C182.346 22.5388 183.321 21.4092 184.916 20.8523C186.344 20.3537 188.269 20.1076 190.736 20.1083C192.352 20.1088 193.625 20.1807 195.367 20.3701C195.73 20.4096 196.034 20.4358 196.041 20.4283C196.078 20.3916 192.429 18.0825 190.736 17.0704C186.322 14.4329 181.957 12.7294 178.462 12.2802C175.47 11.8958 171.888 12.3096 168.679 13.4102C167.493 13.817 167.041 14.0214 166.751 14.2826C166.571 14.4454 166.414 14.5085 166.189 14.5085C165.998 14.5085 165.787 14.4243 165.68 14.3056C165.646 14.2689 165.571 14.1309 165.512 13.9989C165.375 13.695 165.043 13.2003 164.703 12.7937C163.725 11.6257 162.337 10.7714 161.185 10.6282C159.927 10.4719 158.46 11.4165 157.812 12.801C157.439 13.5968 157.419 14.4286 157.752 15.3709C157.968 15.9819 158.422 16.7806 158.886 17.3657C159.457 18.084 159.979 18.5679 160.722 19.0656C161.181 19.3733 161.304 19.5184 161.328 19.7835C161.342 19.9458 161.213 21.0213 161.107 21.6133C160.412 25.4973 159.72 28.3522 158.667 31.6695C158.11 33.4245 157.167 35.9973 156.975 36.2884C156.924 36.3649 156.814 36.4673 156.729 36.516C156.645 36.5647 155.929 36.8095 155.138 37.0601C147.094 39.6093 143.266 41.1787 140.115 43.2203C136.794 45.3718 134.276 48.1906 132.341 51.9212C130.335 55.7885 129.22 60.3037 128.877 65.9375C128.815 66.9564 128.815 70.5982 128.877 71.7058C129.039 74.612 129.316 77.2007 129.77 80.048L129.864 80.6367L134.756 80.6327C137.447 80.6305 143.54 80.6183 148.297 80.6057L148.298 80.6057ZM175.837 23.8133C175.598 23.7575 175.446 23.6007 175.265 23.2195C175.175 23.0314 175.038 22.784 174.961 22.6699C174.636 22.192 174.031 21.7686 173.465 21.6239C173.115 21.5344 172.531 21.5279 172.193 21.6099C171.671 21.7367 171.166 22.0502 170.74 22.5115C170.627 22.6337 170.462 22.7691 170.372 22.8123C169.913 23.0347 169.352 22.6787 169.352 22.1649C169.352 21.9176 169.493 21.672 169.831 21.329C171.093 20.0476 172.964 19.7026 174.557 20.4572C175.334 20.8257 176.019 21.477 176.426 22.2354C176.646 22.6454 176.726 22.8757 176.726 23.1013C176.727 23.5934 176.314 23.9243 175.837 23.8133ZM127.698 77.3899L127.968 77.3482L127.979 77.2135C127.985 77.1395 127.941 76.6381 127.881 76.0994C127.683 74.3217 127.541 72.4364 127.496 70.978L127.471 70.1783H127.323H127.174L126.918 70.6006C125.613 72.7605 124.951 74.7857 125.106 76.1464C125.162 76.6397 125.256 76.8741 125.49 77.1039C125.696 77.3062 125.895 77.3876 126.315 77.4412C126.577 77.4747 127.331 77.4468 127.698 77.3899ZM190.305 38.0483C191.546 37.9643 192.646 37.6566 193.593 37.1284C194.089 36.8518 194.404 36.6031 194.865 36.1233C195.356 35.6127 196.099 34.6303 196.341 34.1713C196.383 34.0909 196.381 34.0869 196.301 34.1069C195.644 34.2719 194.785 34.277 194.18 34.1195C193.316 33.8947 192.564 33.4095 192.038 32.7374C191.956 32.6329 191.88 32.5475 191.868 32.5475C191.856 32.5475 191.78 32.6329 191.698 32.7374C190.66 34.0623 188.835 34.5764 187.16 34.0156C186.354 33.7458 185.438 33.1262 185.24 32.7167C185.026 32.2763 185.322 31.7426 185.805 31.6962C186.06 31.6717 186.202 31.7319 186.558 32.0158C186.903 32.2915 187.452 32.5799 187.825 32.6817C188.193 32.7821 188.947 32.773 189.298 32.6638C189.791 32.5107 190.162 32.2606 190.523 31.8392C190.741 31.5852 190.909 31.27 191.063 30.8259C191.248 30.2949 191.459 30.1061 191.868 30.1061C192.277 30.1061 192.488 30.2949 192.673 30.8259C192.827 31.27 192.995 31.5852 193.213 31.8392C193.574 32.2606 193.945 32.5107 194.438 32.6638C194.789 32.773 195.543 32.7821 195.911 32.6817C196.399 32.5486 197.023 32.1847 197.459 31.7799C197.693 31.562 198.176 29.5637 198.336 28.1474C198.466 27.0037 198.504 25.2589 198.425 24.0981C198.377 23.3862 198.256 22.3006 198.221 22.2687C198.149 22.2034 195.809 21.8886 194.513 21.7698C192.912 21.623 192.531 21.6067 190.736 21.6083C189.313 21.6095 188.838 21.6222 188.364 21.6718C186.326 21.8847 185.131 22.2153 184.462 22.7509C183.764 23.3093 183.388 24.1015 183.127 25.5598C183.069 25.887 183.064 26.1446 183.075 28.4349C183.099 33.6057 183.142 34.3046 183.493 35.1948C184.12 36.7868 186.216 37.8709 189.009 38.0476C189.627 38.0867 189.736 38.0868 190.305 38.0483ZM181.104 11.1987C181.104 10.793 180.876 9.93595 180.621 9.38435C180.127 8.31434 179.124 7.43072 178.23 7.27743C178.011 7.23986 177.931 7.24205 177.688 7.29213C176.598 7.51754 175.363 8.50254 174.431 9.89028C174.153 10.3043 173.988 10.6283 173.988 10.7612V10.8889L174.321 10.8627C175.523 10.7676 177.202 10.7818 178.211 10.8954C178.874 10.97 179.902 11.1432 180.439 11.2709C180.676 11.3272 180.923 11.3752 180.987 11.3775L181.104 11.3818V11.1987ZM9.43981 91.3427C6.69716 91.0543 4.5847 89.3294 4.07228 86.9599C3.94617 86.3768 3.91201 85.8722 3.93279 84.8997C3.96144 83.5591 4.09753 82.9283 4.54709 82.0524C4.80911 81.5419 5.11785 81.137 5.59945 80.6722C6.57747 79.7285 7.91227 79.1368 9.41585 78.9806C9.95244 78.9248 11.2682 78.9565 11.704 79.0357C12.5214 79.1843 13.3056 79.4494 13.8963 79.7771C15.1039 80.447 15.9715 81.4128 16.3716 82.533C16.4855 82.852 16.624 83.5127 16.5845 83.549C16.5687 83.5636 16.2 83.6515 15.7651 83.7445C15.3303 83.8375 14.5297 84.0102 13.9861 84.1283C13.1353 84.3131 12.1619 84.5181 12.135 84.5181C12.1304 84.5181 12.1082 84.4242 12.0856 84.3096C12.0518 84.1377 11.7408 82.8051 10.2369 82.8719C9.03608 82.9254 8.66464 83.9633 8.62507 84.0853C7.7798 88.1719 11.5711 88.329 12.0981 85.9072C13.5344 85.8794 15.0716 86.4733 16.4976 86.8016C16.7409 86.8595 16.2696 88.2553 15.718 88.9937C15.4184 89.3947 14.8182 89.9615 14.3954 90.2426C13.5052 90.8344 12.4964 91.1973 11.378 91.3282C10.8836 91.386 9.92036 91.3932 9.43981 91.3427ZM16.5738 90.8222C16.5738 90.7771 21.328 79.8916 21.4078 79.7541C21.4543 79.6739 21.5675 79.539 21.6593 79.4543C22.2037 78.9525 23.0724 78.9633 23.5737 79.4782C23.7302 79.6389 23.9485 80.0926 26.3204 85.1852C27.7376 88.228 28.9078 90.7459 28.9208 90.7805C28.9433 90.84 28.8142 90.8434 26.5185 90.8434H24.0923L23.9 90.2773L23.7077 89.7113H22.4139H21.1201L20.9584 90.2771L20.7966 90.843L18.6852 90.8433C17.5239 90.8433 16.5738 90.834 16.5738 90.8224V90.8222ZM23.332 87.4022C23.3354 87.3453 22.4512 84.3743 22.4308 84.3743C22.4113 84.3743 21.4256 87.3448 21.4256 87.4037C21.4256 87.438 23.3299 87.4364 23.332 87.4022ZM29.9073 85.0931C29.9073 81.9304 29.9208 79.3428 29.9374 79.3428C29.9539 79.3428 30.2572 79.3112 30.6112 79.2725C32.3538 79.082 33.3312 79.0181 34.5189 79.0172C35.1311 79.0167 35.5589 79.0344 35.8409 79.0717C38.1234 79.3736 39.1513 80.4924 39.359 82.9008C39.4725 84.2172 39.2999 85.2857 38.817 86.2549C38.1671 87.5592 37.0548 88.4376 35.7047 88.7124C35.4498 88.7643 35.2356 88.7756 34.6063 88.7704L33.8247 88.7639V89.8037V90.8434H31.866H29.9073V85.0931ZM34.2813 85.2774C35.3111 84.6739 35.7969 84.11 35.9324 83.3607C36.0038 82.9656 35.977 82.6253 35.8547 82.3753C35.7188 82.0977 35.5925 82.0199 35.2802 82.0219C35.0636 82.0232 34.9935 82.0415 34.7759 82.1532C34.6369 82.2245 34.3877 82.3855 34.2223 82.511C34.0568 82.6364 33.8916 82.7613 33.8551 82.7884C33.7926 82.8348 33.7887 82.9172 33.7887 84.2011C33.7887 84.951 33.8009 85.5578 33.8157 85.5495C33.8305 85.5413 34.04 85.4188 34.2813 85.2774ZM42.1626 88.6194V86.3954L40.7205 82.932C39.9273 81.0271 39.2704 79.4403 39.2607 79.4057C39.2441 79.3463 39.362 79.3428 41.3771 79.3428H43.511L43.9751 80.4938C44.2304 81.1269 44.4517 81.6323 44.467 81.6169C44.4823 81.6016 44.7034 81.0877 44.9584 80.4749L45.4221 79.3608L47.2091 79.3515C48.9797 79.3422 48.9959 79.3428 48.9734 79.4138C48.9609 79.4532 48.2967 81.0247 47.4974 82.9061L46.044 86.3267V88.5851V90.8434H44.1033H42.1626V88.6194ZM50.0333 85.0931C50.0333 81.9304 50.0469 79.3428 50.0634 79.3428C50.08 79.3428 50.3832 79.3112 50.7373 79.2725C52.4798 79.082 53.4572 79.0181 54.645 79.0172C55.2572 79.0167 55.6849 79.0344 55.9669 79.0717C58.2494 79.3736 59.2773 80.4924 59.485 82.9008C59.5986 84.2172 59.4259 85.2857 58.943 86.2549C58.2932 87.5592 57.1808 88.4376 55.8308 88.7124C55.5758 88.7643 55.3616 88.7756 54.7324 88.7704L53.9507 88.7639V89.8037V90.8434H51.992H50.0333V85.0931ZM54.4073 85.2774C55.4372 84.6739 55.9229 84.11 56.0584 83.3607C56.1299 82.9656 56.103 82.6253 55.9807 82.3753C55.8449 82.0977 55.7185 82.0199 55.4062 82.0219C55.1896 82.0232 55.1195 82.0415 54.9019 82.1532C54.7629 82.2245 54.5138 82.3855 54.3483 82.511C54.1829 82.6364 54.0176 82.7613 53.9811 82.7884C53.9186 82.8348 53.9148 82.9172 53.9148 84.2011C53.9148 84.951 53.9269 85.5578 53.9417 85.5495C53.9565 85.5413 54.1661 85.4188 54.4073 85.2774ZM58.6228 90.8222C58.6228 90.7771 63.3771 79.8916 63.4569 79.7541C63.5034 79.6739 63.6166 79.539 63.7084 79.4543C64.2528 78.9525 65.1215 78.9633 65.6227 79.4782C65.7792 79.6389 65.9976 80.0926 68.3694 85.1852C69.7866 88.228 70.9568 90.7459 70.9699 90.7805C70.9924 90.84 70.8632 90.8434 68.5675 90.8434H66.1414L65.9491 90.2773L65.7568 89.7113H64.463H63.1691L63.0074 90.2771L62.8457 90.843L60.7343 90.8433C59.573 90.8433 58.6228 90.834 58.6228 90.8224V90.8222ZM65.381 87.4022C65.3845 87.3453 64.5002 84.3743 64.4799 84.3743C64.4603 84.3743 63.4746 87.3448 63.4746 87.4037C63.4746 87.438 65.379 87.4364 65.381 87.4022ZM72.711 88.6194V86.3954L71.2689 82.932C70.4757 81.0271 69.8189 79.4403 69.8092 79.4057C69.7925 79.3463 69.9104 79.3428 71.9255 79.3428H74.0595L74.5236 80.4938C74.7788 81.1269 75.0002 81.6323 75.0154 81.6169C75.0307 81.6016 75.2519 81.0877 75.5069 80.4749L75.9705 79.3608L77.7575 79.3515C79.5282 79.3422 79.5444 79.3428 79.5218 79.4138C79.5093 79.4532 78.8451 81.0247 78.0458 82.9061L76.5925 86.3267V88.5851V90.8434H74.6518H72.711V88.6194ZM9.44357 76.9769C9.39168 76.893 9.03839 74.4784 8.86687 73.0355C8.67782 71.4451 8.57149 70.2352 8.44364 68.2196C8.38163 67.2421 8.38153 63.0266 8.4435 62.1279C8.65071 59.1227 8.96027 56.9955 9.52611 54.6885C11.0156 48.6158 14.0721 43.6922 18.3528 40.4698C20.3992 38.9294 23.0572 37.5346 26.4716 36.2094C28.5578 35.3997 30.9045 34.5959 34.7814 33.363C35.4954 33.1359 36.1356 32.9267 36.2041 32.8981C36.4529 32.7941 36.5745 32.6169 36.8097 32.0152C38.1308 28.6354 39.273 24.7968 40.0578 21.1002C40.4342 19.3269 40.9053 16.6216 40.9045 16.2378C40.9038 15.9245 40.7434 15.7045 40.3125 15.4263C38.3403 14.1529 36.8489 11.6577 37.094 10.0413C37.2979 8.69707 38.3992 7.45047 39.7385 7.04816C40.6776 6.76604 41.7703 7.06198 42.9939 7.92983C43.8152 8.51232 44.675 9.49762 45.093 10.3351C45.272 10.694 45.4063 10.8078 45.6816 10.8342C45.8939 10.8547 46.0843 10.7962 46.2358 10.664C46.563 10.3785 46.916 10.2102 48.0027 9.82136C51.2581 8.65671 54.9381 8.21551 58.0658 8.61492C61.6215 9.069 65.9961 10.8013 70.6086 13.5817C71.5339 14.1395 71.9785 14.4147 73.2913 15.2423C74.6116 16.0746 75.6448 16.7565 75.6009 16.7664C75.5724 16.7729 75.238 16.7447 74.8578 16.7038C73.1822 16.5236 71.8579 16.4493 70.3211 16.4494C68.1498 16.4494 66.6434 16.6079 65.1638 16.9913C64.0656 17.2759 63.4543 17.5899 62.8317 18.1894C62.1291 18.8659 61.7183 19.6305 61.4207 20.8158C61.3158 21.2336 61.3113 21.2857 61.2779 22.4832C61.2589 23.1631 61.2492 25.2251 61.2564 27.0655C61.2693 30.3299 61.2715 30.4217 61.3483 30.8249C61.506 31.6528 61.7254 32.2549 62.0784 32.8285C62.369 33.3008 63.1091 34.0318 63.6812 34.4118C64.7685 35.1338 66.1761 35.6029 67.8053 35.7863C68.0228 35.8108 68.2052 35.8344 68.2108 35.8387C68.2163 35.8431 68.1455 35.9741 68.0534 36.13C67.8415 36.4882 67.701 36.8401 67.6286 37.1934C67.545 37.6008 67.4298 38.5404 67.405 39.0165C67.3836 39.4273 67.3857 39.443 67.5834 40.3128C68.7471 45.4347 69.062 50.5132 68.5394 55.7308C68.1339 59.7789 67.2152 63.8569 65.7972 67.9029C65.6023 68.4588 65.4513 69.2792 65.4513 69.7818C65.4513 70.2889 65.6466 71.4374 65.7753 71.6878C65.8109 71.757 65.886 71.8572 65.9422 71.9105C66.1265 72.0855 66.2656 72.119 66.8069 72.1192C67.9913 72.1195 69.2791 72.2633 69.9257 72.4676C70.5821 72.6749 70.9385 73.0786 71.1315 73.833C71.2161 74.1641 71.2879 74.9125 71.2558 75.1291L71.2331 75.282L66.8992 75.2729L62.5652 75.2637L62.4683 74.9582C62.341 74.5572 62.2209 74.2958 62.0273 73.998C61.5892 73.3245 61.0662 72.9625 60.1726 72.7143C59.8112 72.6139 58.7404 72.4493 58.2994 72.4264C58.1314 72.4177 57.7638 72.3992 57.4825 72.3854C57.0575 72.3645 56.9685 72.3505 56.9551 72.3026C56.9294 72.2104 56.8305 71.5624 56.7735 71.1127C56.6772 70.3539 56.6358 69.4023 56.6575 68.4532C56.6849 67.2531 56.7755 66.4311 57.0081 65.2726C57.2634 64.001 57.5113 63.2576 58.183 61.7496C58.4386 61.1759 58.6588 60.6474 58.6724 60.5752C58.6859 60.5031 58.7099 60.4388 58.7256 60.4324C58.7413 60.426 58.888 60.1863 59.0514 59.8997C59.7972 58.5918 60.6895 57.3806 61.7123 56.2878C62.1866 55.781 62.2674 55.6471 62.2655 55.3714C62.2635 55.0876 62.1191 54.858 61.8578 54.723C61.7143 54.6489 61.3936 54.663 61.2284 54.7506C60.898 54.926 59.7247 56.2624 58.9348 57.363C57.2672 59.6866 56.0716 62.4629 55.5518 65.2187C55.3033 66.5361 55.2266 67.4056 55.2266 68.9025C55.2266 70.4334 55.3101 71.3482 55.5726 72.6916C55.6871 73.2774 55.7493 73.4422 55.9151 73.5996C56.0994 73.7746 56.2385 73.8082 56.7798 73.8083C57.9642 73.8087 59.252 73.9525 59.8987 74.1568C60.555 74.3641 60.9114 74.7677 61.1044 75.5222C61.189 75.8531 61.2608 76.6016 61.2287 76.8181L61.2061 76.9708H54.4746H47.7432L47.6034 76.8766C47.1234 76.5532 45.5383 75.0689 45.0466 74.4822C44.2082 73.4821 44.0544 73.2874 43.6771 72.748C41.8857 70.1869 40.8357 67.3214 40.5823 64.3023C40.5357 63.7471 40.5357 62.4482 40.5823 61.8943C40.8138 59.1458 41.7137 56.6266 43.3041 54.2752C44.0566 53.1627 44.9341 52.1561 46.0563 51.1181C46.2509 50.9381 46.4396 50.7331 46.4756 50.6625C46.6364 50.3473 46.5945 50.0544 46.3541 49.814C46.0663 49.5262 45.7066 49.5243 45.3271 49.8085C45.0304 50.0307 43.7046 51.3723 43.2912 51.8687C42.3954 52.9442 41.7033 53.9604 41.1054 55.0779C38.941 59.1233 38.4925 63.7095 39.8272 68.1488C40.3585 69.9156 41.1259 71.5454 42.1834 73.1523L42.5914 73.7722L40.1038 73.7729C38.7356 73.7733 37.4496 73.7838 37.246 73.7962L36.8759 73.8187L36.5683 73.4891C35.929 72.8039 35.3526 72.5161 34.3636 72.388C33.7891 72.3135 32.7335 72.2388 31.5186 72.1865L30.4884 72.1422L31.231 71.7742C32.7906 71.0014 33.8448 70.2625 34.9435 69.1721C35.9355 68.1875 36.505 67.4094 37.0608 66.2789C37.8486 64.6766 38.1873 63.1909 38.1873 61.3373C38.1873 60.397 38.1326 59.8369 37.9549 58.959C37.2593 55.5207 35.0887 52.4726 32.0096 50.6102C31.2511 50.1513 30.0287 49.5867 29.6695 49.5293C29.2155 49.4567 28.7657 49.8983 28.8471 50.3366C28.8825 50.5274 29.0042 50.7223 29.1516 50.8245C29.2233 50.8741 29.4266 50.9724 29.6035 51.0427C30.1246 51.2501 30.8981 51.6435 31.388 51.9504C34.335 53.7968 36.2447 56.7616 36.6703 60.1513C36.7402 60.7081 36.7291 62.1429 36.6507 62.685C36.34 64.8339 35.4517 66.6208 33.9528 68.1122C32.4882 69.5694 30.491 70.7058 28.0563 71.4673C27.1492 71.751 26.0915 71.9857 25.4376 72.0482C25.0312 72.0872 24.857 72.1643 24.6812 72.3829C24.5784 72.5108 24.5701 72.5418 24.5701 72.8019C24.5701 73.062 24.5784 73.0929 24.6812 73.2208C24.7422 73.2968 24.8611 73.3975 24.9454 73.4445C25.0914 73.5261 25.1271 73.5298 25.7148 73.5245C27.2391 73.5106 31.1474 73.619 32.7643 73.72C34.5868 73.8337 34.9508 73.9245 35.4044 74.3784C35.8479 74.8222 36.2695 75.6949 36.5055 76.6577C36.5384 76.7918 36.5592 76.9074 36.5516 76.9146C36.5441 76.9217 30.7643 76.9375 23.7076 76.9496C16.6509 76.9617 10.5598 76.981 10.1717 76.9926C9.70698 77.0065 9.45841 77.0012 9.44344 76.9769L9.44357 76.9769ZM55.9907 20.0351C56.3135 19.8215 56.3693 19.4127 56.1475 18.8874C55.7598 17.9694 54.8573 17.0829 53.9325 16.7116C53.4072 16.5007 53.1253 16.4435 52.5131 16.424C52.0371 16.4088 51.9011 16.4175 51.5787 16.4834C50.7506 16.6529 50.0472 17.0357 49.4379 17.6486C48.9671 18.1221 48.8645 18.3409 48.9553 18.6781C49.0125 18.8906 49.2441 19.1229 49.4556 19.1799C49.7616 19.2623 50.0371 19.1487 50.3182 18.8242C51.0499 17.9796 52.2242 17.6555 53.2419 18.0172C53.9217 18.2589 54.5348 18.8383 54.8151 19.504C55.0202 19.9912 55.2401 20.1642 55.6267 20.1425C55.7907 20.1333 55.8839 20.1058 55.9907 20.0351ZM5.69317 73.6844C5.20571 73.5729 4.95462 73.3473 4.81104 72.8917C4.69786 72.5326 4.70028 71.6304 4.81592 71.0667C5.05324 69.91 5.65031 68.4805 6.47416 67.0965C6.74454 66.6423 6.78981 66.5844 6.87465 66.5844H6.97031L6.99433 67.1864C7.06389 68.9298 7.19592 70.6807 7.392 72.4598C7.4595 73.0722 7.50312 73.5844 7.48893 73.598C7.37667 73.7054 6.06176 73.7687 5.69317 73.6844ZM68.4163 34.3819C65.9464 34.161 64.1792 33.3528 63.3272 32.0543C63.1043 31.7146 62.9468 31.3033 62.8427 30.7889C62.6782 29.9762 62.6707 29.7717 62.629 24.9308C62.6063 22.2943 62.6151 22.1311 62.8281 21.2397C63.1949 19.705 63.8583 18.9154 65.1099 18.5238C66.4529 18.1036 68.0312 17.92 70.3031 17.9195C71.8757 17.9192 72.8631 17.971 74.508 18.14C75.8178 18.2746 77.7296 18.5422 77.7863 18.5989C77.8581 18.6708 77.9905 20.0598 78.0275 21.1304C78.1124 23.5879 77.8435 25.8031 77.2365 27.6476L77.0934 28.0823L76.7645 28.3414C76.3496 28.6682 76.0886 28.8139 75.6581 28.959C75.2274 29.1041 74.6202 29.1416 74.1846 29.05C73.2722 28.8582 72.5542 28.1544 72.2229 27.1273C72.0729 26.6622 71.8197 26.4419 71.4352 26.4419C71.0507 26.4419 70.7975 26.6622 70.6475 27.1273C70.3812 27.9528 69.9257 28.5117 69.2429 28.8506C68.843 29.0491 68.5202 29.1106 67.985 29.0904C67.285 29.0639 66.7522 28.8526 66.1166 28.3494C65.7737 28.078 65.5755 27.9971 65.3551 28.0384C65.0713 28.0916 64.8385 28.3005 64.767 28.566C64.6557 28.9794 64.9132 29.339 65.6748 29.8337C66.3715 30.2864 67.0899 30.5202 67.9131 30.5625C68.8189 30.609 69.6876 30.3647 70.4222 29.8568C70.672 29.6841 71.1527 29.221 71.3483 28.9646L71.4377 28.8473L71.5683 29.0185C71.7604 29.2702 72.2286 29.7118 72.491 29.8886C72.7953 30.0937 73.3124 30.3338 73.6455 30.4247C74.2533 30.5905 75.017 30.6127 75.6339 30.4825C75.7886 30.4499 75.9239 30.4318 75.9344 30.4423C75.9655 30.4734 75.2959 31.4575 74.9651 31.8671C74.5469 32.3848 73.9016 33.0049 73.5269 33.2491C72.6961 33.7907 71.6527 34.164 70.5024 34.3314C70.0533 34.3967 68.8954 34.4248 68.4163 34.3819ZM59.9885 7.53281C59.3601 7.38918 58.3881 7.22917 57.6884 7.1542C57.0302 7.08367 55.0712 7.06286 54.1394 7.1165L53.6272 7.14598V7.06075C53.6272 6.96412 53.9142 6.46463 54.2007 6.06276C55.1789 4.69033 56.4978 3.72977 57.4907 3.6666C57.7354 3.65104 57.8178 3.66191 58.0439 3.73958C58.5995 3.93045 59.2531 4.43062 59.6645 4.97973C60.1425 5.61791 60.5968 6.83022 60.5989 7.47337C60.5996 7.67976 60.6219 7.67759 59.9885 7.53281Z" fill="#292929"/>
</g>
<mask id="mask1_109_3" style="mask-type:alpha" maskUnits="userSpaceOnUse" x="3" y="77" width="80" height="25">
<rect x="3.87854" y="77.456" width="78.243" height="24.1267" fill="#D9D9D9"/>
</mask>
<g mask="url(#mask1_109_3)">
<path d="M103.347 38.9817V-42.3211H161.884H220.421V38.9817V120.285H161.884H103.347V38.9817ZM124.3 95.1001C124.806 95.0278 125.699 94.7789 126.024 94.6198C126.806 94.2364 127.257 93.9074 127.81 93.3163C128.236 92.8609 128.734 92.0914 128.797 91.7904C128.804 91.7575 128.854 91.5905 128.908 91.4192C129.002 91.1196 129.132 90.4807 129.105 90.4525C129.08 90.4275 127.08 89.9174 127.001 89.9158C126.958 89.915 126.486 89.8024 125.953 89.6656L124.984 89.417L124.945 89.632C124.866 90.0649 124.617 90.5155 124.321 90.7645C124.165 90.8952 123.949 91.0334 123.949 91.0022C123.949 90.9934 123.871 91.0093 123.776 91.0375C123.577 91.0967 123.206 91.1037 123.005 91.052C122.706 90.9752 122.391 90.774 122.191 90.5335C121.827 90.0952 121.747 89.7783 121.747 88.7641C121.747 87.7453 121.818 87.4815 122.223 86.9939C122.543 86.6083 122.954 86.4469 123.528 86.4806C123.989 86.5075 124.41 86.7701 124.676 87.1971C124.793 87.3836 124.92 87.7474 124.952 87.9857C124.964 88.081 124.992 88.159 125.013 88.159C125.034 88.159 125.435 88.0603 125.905 87.9395C126.374 87.8188 126.79 87.7199 126.828 87.7197C126.866 87.7197 127.28 87.6211 127.748 87.5008C128.216 87.3806 128.707 87.265 128.84 87.2439C128.974 87.2229 129.097 87.1959 129.114 87.1839C129.16 87.1522 129.115 86.8435 129.003 86.4191C128.819 85.7249 128.673 85.3975 128.3 84.8439C127.957 84.3341 127.268 83.638 126.908 83.4363C126.844 83.4003 126.665 83.2952 126.512 83.2028C125.499 82.5932 124.169 82.299 122.914 82.4068C122.334 82.4566 122.151 82.4905 121.501 82.6695C121.038 82.7971 120.909 82.8507 120.417 83.1211C119.527 83.61 118.862 84.2242 118.394 84.9898C118.296 85.1506 118.2 85.3004 118.182 85.3226C118.085 85.4428 117.853 86.0394 117.742 86.4557C117.541 87.2086 117.506 87.5826 117.509 88.9247C117.512 89.9266 117.521 90.1308 117.578 90.4444C117.777 91.5455 118.234 92.4974 118.935 93.2691C119.398 93.7782 119.679 94.0054 120.269 94.3443C120.997 94.763 121.612 94.9841 122.372 95.1003C122.813 95.1677 123.828 95.1676 124.3 95.1003V95.1001ZM133.083 93.9923L133.231 93.4156H134.414H135.597L135.773 93.9925L135.949 94.5695H138.163C139.381 94.5695 140.378 94.5593 140.378 94.5468C140.378 94.5344 139.311 91.9699 138.006 88.848C135.891 83.7851 135.619 83.1525 135.485 82.9934C135.226 82.6866 134.789 82.523 134.412 82.5915C134.023 82.662 133.645 82.9526 133.471 83.3137C133.385 83.4921 129.075 94.5056 129.075 94.5468C129.075 94.5593 129.943 94.5694 131.005 94.5693L132.936 94.5689L133.083 93.9923ZM133.511 91.0665C133.511 91.0088 134.413 87.9759 134.43 87.9759C134.448 87.9759 135.255 91.0017 135.253 91.0621C135.252 91.0951 133.511 91.0995 133.511 91.0665ZM144.847 93.511V92.4526L145.578 92.4577C146.176 92.4619 146.359 92.4507 146.582 92.3962C148.047 92.0377 149.167 90.8783 149.67 89.2004C149.965 88.2172 150.018 86.9998 149.822 85.7255C149.678 84.7946 149.292 83.9454 148.801 83.4844C147.708 82.4569 146.071 82.2806 142.057 82.7582C141.635 82.8085 141.276 82.8584 141.261 82.8691C141.245 82.8797 141.232 85.5167 141.232 88.729V94.5695H143.04H144.847V93.511ZM144.814 87.8024V86.4157L145.061 86.1976C145.358 85.9362 145.799 85.6446 145.98 85.5901C146.161 85.5356 146.396 85.5676 146.516 85.6632C146.762 85.858 146.866 86.3752 146.774 86.9427C146.635 87.7983 146.147 88.361 144.839 89.1737C144.825 89.1821 144.814 88.565 144.814 87.8024ZM156.019 92.2702V89.971L157.353 86.4734C158.087 84.5497 158.695 82.9386 158.704 82.8933L158.721 82.8109H157.111C155.862 82.8109 155.494 82.8212 155.468 82.8567C155.45 82.8819 155.248 83.4052 155.018 84.0197C154.789 84.6342 154.59 85.1494 154.577 85.1646C154.564 85.1799 154.36 84.6606 154.125 84.0108L153.697 82.8292L151.749 82.8198L149.801 82.8103L149.816 82.893C149.824 82.9385 150.418 84.5451 151.134 86.4632L152.437 89.9507V92.2601V94.5695H154.228H156.019V92.2702ZM163.247 93.511V92.4526L163.978 92.4577C164.576 92.4619 164.759 92.4507 164.982 92.3962C166.447 92.0377 167.568 90.8783 168.071 89.2004C168.366 88.2172 168.419 86.9998 168.222 85.7255C168.079 84.7946 167.692 83.9454 167.202 83.4844C166.108 82.4569 164.472 82.2806 160.458 82.7582C160.035 82.8085 159.677 82.8584 159.661 82.8691C159.646 82.8797 159.633 85.5167 159.633 88.729V94.5695H161.44H163.247V93.511ZM163.215 87.8024V86.4157L163.462 86.1976C163.758 85.9362 164.2 85.6446 164.381 85.5901C164.562 85.5356 164.797 85.5676 164.917 85.6632C165.162 85.858 165.266 86.3752 165.174 86.9427C165.036 87.7983 164.548 88.361 163.239 89.1737C163.226 89.1821 163.215 88.565 163.215 87.8024ZM171.528 93.9923L171.676 93.4156H172.858H174.041L174.217 93.9925L174.393 94.5695H176.608C177.826 94.5695 178.822 94.5593 178.822 94.5468C178.822 94.5344 177.755 91.9699 176.451 88.848C174.335 83.7851 174.063 83.1525 173.929 82.9934C173.67 82.6866 173.234 82.523 172.856 82.5915C172.467 82.662 172.089 82.9526 171.915 83.3137C171.829 83.4921 167.519 94.5056 167.519 94.5468C167.519 94.5593 168.388 94.5694 169.449 94.5693L171.38 94.5689L171.528 93.9923ZM171.955 91.0665C171.955 91.0088 172.857 87.9759 172.874 87.9759C172.892 87.9759 173.699 91.0017 173.697 91.0621C173.696 91.0951 171.955 91.0995 171.955 91.0665ZM183.948 92.2702V89.971L185.283 86.4734C186.017 84.5497 186.625 82.9386 186.634 82.8933L186.65 82.8109H185.04C183.792 82.8109 183.423 82.8212 183.398 82.8567C183.38 82.8819 183.177 83.4052 182.948 84.0197C182.718 84.6342 182.52 85.1494 182.506 85.1646C182.493 85.1799 182.29 84.6606 182.054 84.0108L181.626 82.8292L179.678 82.8198L177.73 82.8103L177.745 82.893C177.754 82.9385 178.347 84.5451 179.064 86.4632L180.367 89.9507V92.2601V94.5695H182.157H183.948V92.2702ZM140.482 80.2151C144.831 80.2023 148.399 80.1822 148.409 80.1704C148.441 80.1353 148.209 79.2447 148.072 78.8736C147.881 78.3554 147.683 77.9956 147.415 77.6768C147.1 77.3026 146.844 77.1555 146.375 77.0789C145.398 76.9196 142.517 76.7866 139.31 76.7526C137.844 76.7371 137.825 76.7346 137.64 76.5254C137.497 76.365 137.443 76.2195 137.443 75.995C137.443 75.6412 137.646 75.3576 137.963 75.2714C138.035 75.2517 138.205 75.2253 138.341 75.2129C138.998 75.1523 140.478 74.733 141.46 74.3294C144.915 72.909 147.217 70.5575 148.129 67.5174C148.88 65.0138 148.695 62.1354 147.624 59.6356C146.532 57.0907 144.668 55.0847 142.35 53.9616C141.689 53.6415 141.589 53.5771 141.479 53.4021C141.393 53.2632 141.38 53.2119 141.38 52.9931C141.38 52.7743 141.393 52.7235 141.479 52.587C141.533 52.5012 141.644 52.3912 141.725 52.3426C142.011 52.1718 142.341 52.2696 143.358 52.8257C144.968 53.7063 146.297 54.89 147.414 56.4393C149.492 59.3204 150.349 63.0571 149.741 66.5833C149.272 69.3029 147.907 71.6721 145.783 73.4525C145.068 74.0517 144.111 74.6864 143.27 75.1187C143.098 75.207 142.946 75.2899 142.931 75.303C142.917 75.3161 143.213 75.3383 143.588 75.3523C144.465 75.3851 145.66 75.4711 146.227 75.5423C147.012 75.6409 147.402 75.7794 147.869 76.1254C148.088 76.2873 148.518 76.735 148.617 76.9035L148.666 76.9865H151.291C152.734 76.9865 153.916 76.9768 153.916 76.965C153.916 76.9531 153.762 76.6852 153.574 76.3697C152.104 73.8981 151.173 71.137 150.847 68.2864C150.71 67.0869 150.694 65.3598 150.81 64.2572C151.183 60.7136 152.416 57.5592 154.538 54.719C155.181 53.8582 156.389 52.539 156.659 52.402C157.064 52.1968 157.546 52.4999 157.588 52.9863C157.617 53.3289 157.588 53.3745 156.708 54.3478C155.507 55.6757 154.837 56.6144 154.088 58.0177C152.255 61.4494 151.652 65.4511 152.375 69.3673C152.834 71.8513 153.823 74.279 155.24 76.4002C155.421 76.6721 155.639 76.977 155.723 77.0779C155.807 77.1787 155.946 77.3648 156.032 77.4913C156.397 78.0279 157.608 79.3328 158.367 80.0066L158.596 80.2101H164.787H170.978L170.959 79.6331C170.939 78.9957 170.884 78.6996 170.708 78.2808C170.58 77.975 170.41 77.7407 170.219 77.6057C169.958 77.4207 169.318 77.2314 168.624 77.1336C168.284 77.0857 167.194 77.0238 166.74 77.0265C166.472 77.0281 166.404 77.0157 166.275 76.9414C166.086 76.8333 165.958 76.6322 165.894 76.3455C165.752 75.7067 165.582 74.401 165.516 73.4352C165.472 72.807 165.472 71.2547 165.515 70.6127C165.693 67.9501 166.304 65.4676 167.37 63.0793C168.051 61.5532 168.753 60.3549 169.753 59.0131C170.179 58.4421 170.8 57.7136 170.949 57.6114C171.416 57.2891 172.028 57.7412 171.942 58.345C171.908 58.5766 171.849 58.6751 171.478 59.1122C170.484 60.2849 169.641 61.5707 168.903 63.0371C168.809 63.2241 168.786 63.2468 168.679 63.2569C168.573 63.2671 168.557 63.2828 168.521 63.4147C168.499 63.4953 168.281 64.064 168.036 64.6785C167.791 65.293 167.561 65.9029 167.525 66.0338C167.489 66.1648 167.43 66.3543 167.394 66.4551C167.149 67.1456 166.836 68.924 166.724 70.2647C166.668 70.9355 166.669 73.1801 166.725 73.8179C166.77 74.3204 166.917 75.5316 166.947 75.6403C166.962 75.6945 167.007 75.7046 167.234 75.7053C167.679 75.7066 168.651 75.8036 169.223 75.9035C169.85 76.0132 170.016 76.0216 170.016 75.9436C170.016 75.8752 170.481 76.0505 170.814 76.2443C171.388 76.5785 171.886 77.3236 172.124 78.2042L172.201 78.4877L176.173 78.4881L180.145 78.4885L180.127 77.9115C180.107 77.2741 180.052 76.978 179.876 76.5592C179.748 76.2533 179.578 76.0191 179.387 75.884C179.125 75.6991 178.486 75.5098 177.791 75.412C177.452 75.3641 176.362 75.3021 175.908 75.3049C175.263 75.3088 175.101 75.077 174.929 73.9096C174.761 72.7664 174.845 72.0349 175.323 70.4626C176.736 65.8128 177.512 61.5024 177.81 56.638C177.878 55.5355 177.867 51.5249 177.793 50.429C177.607 47.659 177.274 45.1753 176.766 42.76C176.601 41.9757 176.592 41.8039 176.67 40.9729C176.797 39.6329 176.916 39.1419 177.257 38.5482C177.337 38.4082 177.363 38.3343 177.336 38.3255C177.313 38.3183 177.101 38.2861 176.864 38.254C174.593 37.9459 172.888 36.9864 171.874 35.4469C171.472 34.8359 171.202 34.01 171.065 32.9751C171.006 32.5273 171.002 32.2474 171.002 28.4065C171.002 25.7765 171.015 24.1475 171.038 23.846C171.06 23.5518 171.114 23.1982 171.183 22.8975C171.611 21.0303 172.503 19.879 173.961 19.3114C175.267 18.8032 177.027 18.5524 179.282 18.5531C180.76 18.5536 181.924 18.6269 183.517 18.8199C183.849 18.8601 184.126 18.8868 184.133 18.8792C184.166 18.8419 180.831 16.4883 179.282 15.4567C175.247 12.7684 171.256 11.0321 168.06 10.5743C165.325 10.1825 162.05 10.6042 159.116 11.726C158.032 12.1407 157.619 12.349 157.354 12.6152C157.189 12.7811 157.045 12.8455 156.84 12.8455C156.666 12.8455 156.472 12.7596 156.374 12.6387C156.344 12.6012 156.275 12.4605 156.22 12.326C156.096 12.0163 155.792 11.5121 155.481 11.0977C154.587 9.90716 153.318 9.03637 152.264 8.89041C151.114 8.73111 149.774 9.69392 149.181 11.1051C148.84 11.9162 148.822 12.7641 149.126 13.7245C149.323 14.3472 149.738 15.1613 150.163 15.7576C150.685 16.4898 151.162 16.9831 151.841 17.4903C152.261 17.8039 152.373 17.9518 152.395 18.222C152.409 18.3875 152.29 19.4837 152.193 20.0871C151.558 24.0458 150.925 26.9557 149.963 30.3368C149.453 32.1256 148.591 34.748 148.415 35.0447C148.369 35.1226 148.268 35.227 148.191 35.2766C148.114 35.3262 147.459 35.5758 146.736 35.8312C139.381 38.4295 135.882 40.0291 133.001 42.11C129.965 44.303 127.663 47.176 125.894 50.9785C124.06 54.9202 123.04 59.5223 122.727 65.2646C122.67 66.3031 122.67 70.0151 122.726 71.1439C122.875 74.106 123.128 76.7447 123.543 79.6467L123.629 80.2468L128.101 80.2427C130.561 80.2404 136.133 80.2281 140.482 80.2152L140.482 80.2151ZM165.661 22.3294C165.442 22.2725 165.304 22.1127 165.137 21.7242C165.055 21.5324 164.93 21.2803 164.859 21.164C164.563 20.6769 164.009 20.2453 163.492 20.0979C163.172 20.0066 162.638 20 162.329 20.0835C161.852 20.2128 161.39 20.5323 161.001 21.0025C160.897 21.1271 160.746 21.2651 160.665 21.3091C160.245 21.5358 159.732 21.173 159.732 20.6493C159.732 20.3972 159.86 20.1469 160.169 19.7972C161.324 18.4912 163.034 18.1396 164.49 18.9087C165.201 19.2843 165.827 19.9481 166.199 20.7211C166.401 21.139 166.474 21.3737 166.474 21.6037C166.474 22.1053 166.097 22.4425 165.661 22.3294ZM121.649 76.9375L121.895 76.895L121.905 76.7577C121.911 76.6822 121.871 76.1712 121.816 75.6221C121.635 73.8102 121.505 71.8886 121.464 70.4021L121.441 69.5871H121.305H121.169L120.936 70.0175C119.742 72.2189 119.137 74.2831 119.278 75.67C119.33 76.1728 119.416 76.4118 119.63 76.6459C119.818 76.8521 120 76.9351 120.384 76.9897C120.624 77.0239 121.313 76.9955 121.649 76.9375ZM178.888 36.8384C180.023 36.7528 181.028 36.4393 181.894 35.9009C182.348 35.6189 182.636 35.3655 183.058 34.8763C183.506 34.356 184.185 33.3546 184.407 32.8869C184.445 32.8048 184.443 32.8008 184.37 32.8212C183.769 32.9894 182.984 32.9946 182.431 32.834C181.641 32.6049 180.954 32.1104 180.473 31.4253C180.398 31.3188 180.328 31.2317 180.317 31.2317C180.307 31.2317 180.237 31.3188 180.162 31.4253C179.213 32.7758 177.545 33.2997 176.013 32.7281C175.276 32.4531 174.438 31.8216 174.257 31.4042C174.062 30.9553 174.333 30.4114 174.774 30.364C175.007 30.3391 175.137 30.4004 175.462 30.6898C175.778 30.9708 176.28 31.2648 176.621 31.3685C176.957 31.4709 177.647 31.4616 177.968 31.3503C178.418 31.1942 178.758 30.9394 179.088 30.5098C179.287 30.2509 179.44 29.9297 179.582 29.477C179.75 28.9358 179.943 28.7433 180.317 28.7433C180.691 28.7433 180.884 28.9358 181.053 29.477C181.194 29.9297 181.348 30.2509 181.547 30.5098C181.877 30.9394 182.216 31.1942 182.667 31.3503C182.988 31.4616 183.677 31.4709 184.014 31.3685C184.46 31.2329 185.03 30.862 185.429 30.4494C185.643 30.2273 186.084 28.1905 186.231 26.7469C186.349 25.5812 186.385 23.8028 186.313 22.6197C186.268 21.8941 186.157 20.7875 186.125 20.755C186.06 20.6885 183.92 20.3676 182.735 20.2465C181.271 20.0969 180.924 20.0803 179.282 20.0819C177.982 20.0832 177.547 20.0961 177.114 20.1466C175.25 20.3637 174.158 20.7006 173.546 21.2465C172.908 21.8157 172.564 22.6231 172.326 24.1095C172.272 24.443 172.268 24.7056 172.278 27.04C172.3 32.3103 172.339 33.0227 172.66 33.93C173.234 35.5527 175.15 36.6576 177.703 36.8377C178.268 36.8776 178.368 36.8776 178.888 36.8384ZM170.476 9.47195C170.476 9.05846 170.268 8.18486 170.035 7.62265C169.583 6.53203 168.666 5.6314 167.848 5.47517C167.648 5.43687 167.575 5.4391 167.353 5.49015C166.357 5.71989 165.228 6.72386 164.375 8.13832C164.121 8.56033 163.97 8.89051 163.97 9.026V9.15619L164.274 9.12942C165.374 9.03258 166.909 9.04697 167.831 9.16277C168.437 9.23882 169.377 9.41538 169.868 9.54549C170.085 9.60288 170.311 9.65179 170.369 9.65417L170.476 9.65851V9.47195ZM13.5287 91.1589C11.0212 90.8649 9.08985 89.1068 8.62136 86.6917C8.50607 86.0973 8.47483 85.583 8.49383 84.5919C8.52002 83.2255 8.64445 82.5825 9.05547 81.6897C9.29502 81.1694 9.57729 80.7567 10.0176 80.283C10.9118 79.3211 12.1321 78.718 13.5068 78.5588C13.9974 78.5019 15.2004 78.5342 15.5988 78.6149C16.3462 78.7664 17.0631 79.0367 17.6032 79.3706C18.7073 80.0534 19.5004 81.0379 19.8662 82.1796C19.9704 82.5047 20.097 83.1782 20.0609 83.2152C20.0465 83.23 19.7094 83.3196 19.3118 83.4144C18.9142 83.5092 18.1823 83.6852 17.6853 83.8055C16.9074 83.9939 16.0174 84.2029 15.9928 84.2029C15.9886 84.2029 15.9683 84.1072 15.9477 83.9903C15.9168 83.8152 15.6324 82.4569 14.2575 82.5251C13.1596 82.5795 12.82 83.6374 12.7838 83.7617C12.011 87.9271 15.4773 88.0872 15.9592 85.6188C17.2723 85.5904 18.6777 86.1957 19.9815 86.5303C20.2039 86.5893 19.773 88.012 19.2687 88.7647C18.9948 89.1734 18.446 89.7511 18.0594 90.0376C17.2456 90.6408 16.3232 91.0107 15.3007 91.1441C14.8488 91.203 13.9681 91.2104 13.5287 91.1589ZM20.0511 90.6284C20.0511 90.5824 24.3978 79.4874 24.4707 79.3471C24.5132 79.2654 24.6167 79.1279 24.7007 79.0417C25.1984 78.5302 25.9926 78.5412 26.4509 79.0659C26.594 79.2297 26.7936 79.6922 28.9621 84.8828C30.2578 87.9842 31.3277 90.5506 31.3396 90.5858C31.3602 90.6465 31.2421 90.6499 29.1432 90.6499H26.9251L26.7493 90.073L26.5735 89.4961H25.3906H24.2077L24.0598 90.0728L23.9119 90.6495L21.9815 90.6499C20.9198 90.6499 20.0511 90.6404 20.0511 90.6286V90.6284ZM26.2299 87.1425C26.2331 87.0845 25.4246 84.0564 25.406 84.0564C25.3881 84.0564 24.487 87.084 24.487 87.1441C24.487 87.179 26.228 87.1774 26.2299 87.1425ZM32.2415 84.789C32.2415 81.5654 32.2539 78.928 32.269 78.928C32.2842 78.928 32.5614 78.8957 32.8851 78.8563C34.4783 78.6621 35.3719 78.597 36.4578 78.5961C37.0175 78.5956 37.4086 78.6136 37.6664 78.6516C39.7532 78.9593 40.693 80.0997 40.8829 82.5545C40.9867 83.8962 40.8289 84.9853 40.3874 85.9731C39.7933 87.3026 38.7762 88.1978 37.5419 88.478C37.3088 88.5309 37.113 88.5424 36.5377 88.5371L35.8231 88.5305V89.5902V90.6499H34.0323H32.2415V84.789ZM36.2405 84.9769C37.1821 84.3617 37.6262 83.7869 37.7501 83.0232C37.8154 82.6205 37.7909 82.2737 37.679 82.0189C37.5548 81.7359 37.4393 81.6566 37.1538 81.6586C36.9558 81.66 36.8917 81.6786 36.6927 81.7924C36.5656 81.8652 36.3379 82.0293 36.1866 82.1571C36.0353 82.285 35.8842 82.4122 35.8509 82.4399C35.7937 82.4872 35.7902 82.5712 35.7902 83.8798C35.7902 84.6441 35.8013 85.2626 35.8148 85.2542C35.8284 85.2458 36.02 85.121 36.2405 84.9769ZM43.4462 88.3831V86.1163L42.1277 82.5863C41.4025 80.6447 40.8019 79.0274 40.7931 78.9921C40.7779 78.9316 40.8857 78.928 42.728 78.928H44.679L45.1033 80.1012C45.3367 80.7464 45.5391 81.2615 45.553 81.2459C45.567 81.2302 45.7692 80.7064 46.0023 80.0819L46.4262 78.9463L48.06 78.9368C49.6789 78.9274 49.6937 78.928 49.6731 79.0003C49.6617 79.0405 49.0544 80.6422 48.3236 82.5598L46.9949 86.0464V88.3482V90.6499H45.2205H43.4462V88.3831ZM50.6421 84.789C50.6421 81.5654 50.6545 78.928 50.6696 78.928C50.6848 78.928 50.962 78.8957 51.2857 78.8563C52.8789 78.6621 53.7725 78.597 54.8584 78.5961C55.4181 78.5956 55.8092 78.6136 56.0671 78.6516C58.1539 78.9593 59.0937 80.0997 59.2836 82.5545C59.3874 83.8962 59.2295 84.9853 58.788 85.9731C58.1939 87.3026 57.1769 88.1978 55.9426 88.478C55.7095 88.5309 55.5137 88.5424 54.9383 88.5371L54.2237 88.5305V89.5902V90.6499H52.4329H50.6421V84.789ZM54.6412 84.9769C55.5827 84.3617 56.0268 83.7869 56.1507 83.0232C56.216 82.6205 56.1915 82.2737 56.0797 82.0189C55.9555 81.7359 55.8399 81.6566 55.5544 81.6586C55.3564 81.66 55.2923 81.6786 55.0933 81.7924C54.9662 81.8652 54.7385 82.0293 54.5872 82.1571C54.4359 82.285 54.2849 82.4122 54.2515 82.4399C54.1944 82.4872 54.1908 82.5712 54.1908 83.8798C54.1908 84.6441 54.2019 85.2626 54.2155 85.2542C54.229 85.2458 54.4206 85.121 54.6412 84.9769ZM58.4953 90.6284C58.4953 90.5824 62.8419 79.4874 62.9149 79.3471C62.9574 79.2654 63.0609 79.1279 63.1448 79.0417C63.6426 78.5302 64.4368 78.5412 64.8951 79.0659C65.0381 79.2297 65.2378 79.6922 67.4063 84.8828C68.702 87.9842 69.7719 90.5506 69.7838 90.5858C69.8044 90.6465 69.6863 90.6499 67.5874 90.6499H65.3693L65.1934 90.073L65.0176 89.4961H63.8347H62.6518L62.504 90.0728L62.3561 90.6495L60.4257 90.6499C59.3639 90.6499 58.4953 90.6404 58.4953 90.6286V90.6284ZM64.6741 87.1425C64.6772 87.0845 63.8688 84.0564 63.8502 84.0564C63.8323 84.0564 62.9311 87.084 62.9311 87.1441C62.9311 87.179 64.6722 87.1774 64.6741 87.1425ZM71.3757 88.3831V86.1163L70.0572 82.5863C69.332 80.6447 68.7315 79.0274 68.7226 78.9921C68.7074 78.9316 68.8152 78.928 70.6575 78.928H72.6085L73.0328 80.1012C73.2662 80.7464 73.4686 81.2615 73.4825 81.2459C73.4965 81.2302 73.6987 80.7064 73.9318 80.0819L74.3557 78.9463L75.9895 78.9368C77.6084 78.9274 77.6232 78.928 77.6026 79.0003C77.5912 79.0405 76.9839 80.6422 76.2531 82.5598L74.9244 86.0464V88.3482V90.6499H73.15H71.3757V88.3831ZM13.5322 76.5165C13.4847 76.431 13.1617 73.9699 13.0049 72.4992C12.8321 70.8782 12.7348 69.645 12.618 67.5907C12.5613 66.5943 12.5612 62.2977 12.6178 61.3817C12.8073 58.3186 13.0903 56.1505 13.6076 53.799C14.9694 47.6094 17.7639 42.591 21.6776 39.3066C23.5486 37.7365 25.9787 36.3148 29.1004 34.9641C31.0077 34.1389 33.1532 33.3196 36.6978 32.0629C37.3505 31.8315 37.9358 31.6183 37.9985 31.5891C38.226 31.4831 38.3372 31.3025 38.5522 30.6892C39.76 27.2443 40.8043 23.3318 41.5218 19.564C41.866 17.7566 42.2967 14.9992 42.2959 14.6081C42.2953 14.2887 42.1486 14.0645 41.7547 13.7809C39.9515 12.483 38.588 9.93974 38.8121 8.29228C38.9985 6.92214 40.0054 5.65154 41.2299 5.24148C42.0885 4.95393 43.0875 5.25556 44.2062 6.14012C44.9571 6.73383 45.7432 7.73809 46.1253 8.59175C46.289 8.95746 46.4118 9.0735 46.6634 9.10046C46.8576 9.12125 47.0317 9.06163 47.1702 8.9269C47.4694 8.63591 47.7921 8.46435 48.7856 8.06807C51.7619 6.881 55.1265 6.4313 57.986 6.83841C61.2368 7.30123 65.2365 9.0669 69.4535 11.9008C70.2995 12.4693 70.7059 12.7498 71.9062 13.5934C73.1133 14.4417 74.058 15.1367 74.0178 15.1468C73.9917 15.1534 73.686 15.1247 73.3384 15.083C71.8065 14.8993 70.5957 14.8236 69.1906 14.8238C67.2055 14.8238 65.8283 14.9852 64.4755 15.3761C63.4714 15.6661 62.9125 15.9862 62.3433 16.5972C61.701 17.2867 61.3254 18.0661 61.0533 19.2742C60.9574 19.7 60.9533 19.7532 60.9227 20.9737C60.9053 21.6667 60.8965 23.7684 60.9031 25.6442C60.9148 28.9714 60.9169 29.065 60.9871 29.476C61.1312 30.3198 61.3318 30.9335 61.6545 31.5182C61.9203 31.9996 62.5969 32.7447 63.12 33.1319C64.1141 33.8678 65.401 34.346 66.8905 34.5329C67.0893 34.5578 67.2561 34.5819 67.2612 34.5863C67.2663 34.5908 67.2015 34.7243 67.1173 34.8832C66.9236 35.2484 66.7951 35.607 66.7289 35.967C66.6525 36.3824 66.5472 37.34 66.5245 37.8252C66.5049 38.244 66.5069 38.26 66.6876 39.1466C67.7516 44.3671 68.0395 49.5433 67.5617 54.8613C67.191 58.9874 66.351 63.144 65.0545 67.2678C64.8764 67.8344 64.7383 68.6706 64.7383 69.1828C64.7383 69.6998 64.9168 70.8704 65.0346 71.1256C65.0671 71.1961 65.1358 71.2982 65.1871 71.3526C65.3557 71.5309 65.4828 71.5651 65.9777 71.5653C67.0606 71.5656 68.2379 71.7122 68.8292 71.9204C69.4292 72.1317 69.7551 72.5431 69.9315 73.3121C70.0089 73.6496 70.0746 74.4123 70.0452 74.6331L70.0244 74.789L66.0621 74.7797L62.0997 74.7704L62.011 74.459C61.8947 74.0502 61.7849 73.7838 61.6078 73.4803C61.2073 72.7938 60.7292 72.4249 59.9121 72.1719C59.5818 72.0695 58.6027 71.9018 58.1995 71.8784C58.0459 71.8695 57.7099 71.8507 57.4527 71.8366C57.0642 71.8153 56.9827 71.8011 56.9705 71.7522C56.947 71.6582 56.8565 70.9978 56.8044 70.5395C56.7165 69.766 56.6785 68.7961 56.6984 67.8288C56.7235 66.6055 56.8064 65.7676 57.019 64.5869C57.2523 63.2908 57.479 62.5331 58.0932 60.9961C58.3269 60.4113 58.5282 59.8726 58.5406 59.7991C58.5529 59.7255 58.5748 59.66 58.5892 59.6535C58.6036 59.647 58.7377 59.4027 58.8871 59.1105C59.569 57.7775 60.3848 56.543 61.3199 55.4291C61.7535 54.9126 61.8274 54.7761 61.8257 54.495C61.8238 54.2058 61.6918 53.9717 61.4529 53.8342C61.3217 53.7586 61.0285 53.773 60.8775 53.8623C60.5754 54.0411 59.5026 55.4033 58.7805 56.525C57.2559 58.8933 56.1628 61.7231 55.6875 64.532C55.4603 65.8747 55.3902 66.7609 55.3902 68.2866C55.3902 69.847 55.4665 70.7794 55.7066 72.1487C55.8112 72.7458 55.8681 72.9138 56.0197 73.0742C56.1882 73.2526 56.3154 73.2868 56.8102 73.2869C57.8931 73.2873 59.0705 73.4339 59.6617 73.6421C60.2618 73.8534 60.5877 74.2648 60.7641 75.0338C60.8415 75.3711 60.9071 76.134 60.8777 76.3547L60.857 76.5103H54.7027H48.5484L48.4206 76.4143C47.9817 76.0847 46.5325 74.5717 46.0829 73.9738C45.3164 72.9545 45.1758 72.756 44.8309 72.2062C43.193 69.5958 42.233 66.6751 42.0013 63.5979C41.9587 63.032 41.9588 61.7081 42.0013 61.1436C42.213 58.3421 43.0358 55.7744 44.4898 53.3778C45.1778 52.2439 45.9801 51.2178 47.0061 50.1599C47.184 49.9764 47.3565 49.7675 47.3894 49.6955C47.5364 49.3742 47.4981 49.0757 47.2784 48.8307C47.0152 48.5373 46.6864 48.5353 46.3394 48.8251C46.0681 49.0516 44.856 50.419 44.478 50.9249C43.6591 52.0212 43.0263 53.0569 42.4796 54.1959C40.5007 58.3192 40.0907 62.9937 41.311 67.5184C41.7967 69.3192 42.4984 70.9804 43.4652 72.6183L43.8382 73.2502L41.5639 73.2509C40.3129 73.2512 39.1372 73.2619 38.9511 73.2746L38.6127 73.2976L38.3314 72.9615C37.747 72.2632 37.22 71.9698 36.3158 71.8392C35.7905 71.7634 34.8255 71.6872 33.7147 71.6339L32.7729 71.5887L33.4518 71.2137C34.8776 70.426 35.8415 69.6728 36.8459 68.5614C37.753 67.5579 38.2736 66.7648 38.7817 65.6126C39.502 63.9794 39.8117 62.4651 39.8117 60.5758C39.8117 59.6174 39.7616 59.0465 39.5992 58.1517C38.9632 54.6472 36.9787 51.5405 34.1636 49.6421C33.4701 49.1745 32.3525 48.599 32.0241 48.5405C31.609 48.4665 31.1978 48.9166 31.2722 49.3633C31.3046 49.5578 31.4158 49.7565 31.5506 49.8606C31.6161 49.9112 31.802 50.0113 31.9638 50.0831C32.4402 50.2944 33.1474 50.6954 33.5953 51.0082C36.2896 52.8901 38.0356 55.912 38.4247 59.367C38.4886 59.9345 38.4785 61.3969 38.4069 61.9495C38.1228 64.1398 37.3106 65.9611 35.9402 67.4811C34.6012 68.9664 32.7752 70.1247 30.5492 70.9009C29.7199 71.19 28.7529 71.4292 28.155 71.493C27.7835 71.5326 27.6242 71.6112 27.4634 71.8341C27.3694 71.9645 27.3619 71.996 27.3619 72.2611C27.3619 72.5262 27.3694 72.5578 27.4634 72.6881C27.5193 72.7656 27.628 72.8682 27.705 72.9161C27.8385 72.9993 27.8712 73.0031 28.4085 72.9976C29.8021 72.9835 33.3753 73.094 34.8536 73.1969C36.5198 73.3129 36.8526 73.4054 37.2673 73.868C37.6728 74.3203 38.0583 75.2099 38.2741 76.1911C38.3041 76.3279 38.3231 76.4457 38.3162 76.453C38.3094 76.4603 33.0251 76.4763 26.5733 76.4887C20.1216 76.501 14.5527 76.5207 14.1979 76.5326C13.773 76.5467 13.5457 76.5412 13.532 76.5166L13.5322 76.5165ZM56.0888 18.4784C56.3839 18.2607 56.4349 17.8441 56.2321 17.3086C55.8777 16.373 55.0526 15.4694 54.207 15.0909C53.7268 14.876 53.469 14.8178 52.9093 14.7978C52.4742 14.7823 52.3498 14.7912 52.055 14.8584C51.2979 15.0311 50.6548 15.4213 50.0977 16.046C49.6673 16.5287 49.5735 16.7516 49.6565 17.0953C49.7089 17.312 49.9206 17.5487 50.114 17.6067C50.3937 17.6907 50.6456 17.575 50.9026 17.2442C51.5716 16.3834 52.6452 16.053 53.5756 16.4217C54.1972 16.6681 54.7577 17.2586 55.0139 17.9371C55.2015 18.4337 55.4026 18.6101 55.756 18.5879C55.9059 18.5785 55.9911 18.5505 56.0888 18.4784ZM10.1033 73.1606C9.65762 73.047 9.42806 72.817 9.29679 72.3527C9.19331 71.9867 9.19552 71.0671 9.30125 70.4925C9.51822 69.3136 10.0641 67.8566 10.8173 66.4459C11.0645 65.9829 11.1059 65.9239 11.1835 65.9239H11.2709L11.2929 66.5375C11.3565 68.3145 11.4772 70.0991 11.6565 71.9125C11.7182 72.5367 11.7581 73.0587 11.7451 73.0726C11.6425 73.1821 10.4403 73.2465 10.1033 73.1606ZM67.4491 33.1015C65.191 32.8763 63.5753 32.0525 62.7963 30.7291C62.5925 30.3828 62.4485 29.9636 62.3533 29.4393C62.2029 28.611 62.1961 28.4025 62.158 23.4685C62.1372 20.7811 62.1452 20.6149 62.34 19.7062C62.6753 18.142 63.2819 17.3372 64.4262 16.9381C65.6541 16.5098 67.0971 16.3226 69.1742 16.3222C70.6119 16.3218 71.5147 16.3746 73.0186 16.5469C74.2161 16.6841 75.964 16.9568 76.0158 17.0146C76.0815 17.0879 76.2025 18.5037 76.2363 19.5948C76.3139 22.0996 76.0681 24.3575 75.5131 26.2375L75.3824 26.6806L75.0816 26.9447C74.7023 27.2778 74.4637 27.4263 74.0701 27.5741C73.6763 27.7221 73.1212 27.7603 72.7229 27.6669C71.8888 27.4714 71.2323 26.754 70.9294 25.7072C70.7922 25.2331 70.5607 25.0086 70.2092 25.0086C69.8577 25.0086 69.6262 25.2331 69.4891 25.7072C69.2456 26.5486 68.8291 27.1182 68.2049 27.4637C67.8393 27.666 67.5442 27.7287 67.0548 27.7081C66.4148 27.6811 65.9277 27.4657 65.3466 26.9528C65.0331 26.6762 64.8519 26.5937 64.6504 26.6358C64.3909 26.6901 64.1781 26.9029 64.1127 27.1735C64.0109 27.5949 64.2464 27.9614 64.9427 28.4657C65.5797 28.9271 66.2365 29.1655 66.9891 29.2085C67.8172 29.2559 68.6114 29.0069 69.283 28.4893C69.5114 28.3133 69.951 27.8412 70.1298 27.5798L70.2115 27.4603L70.3309 27.6348C70.5065 27.8914 70.9346 28.3414 71.1745 28.5217C71.4527 28.7307 71.9255 28.9754 72.23 29.068C72.7858 29.237 73.484 29.2597 74.048 29.127C74.1894 29.0937 74.3131 29.0753 74.3227 29.086C74.3511 29.1177 73.739 30.1208 73.4365 30.5383C73.0541 31.0659 72.4642 31.6979 72.1216 31.9469C71.362 32.4989 70.4081 32.8794 69.3564 33.05C68.9458 33.1166 67.8872 33.1452 67.4491 33.1015ZM59.7439 5.73547C59.1693 5.58906 58.2806 5.42598 57.6409 5.34956C57.0392 5.27768 55.2481 5.25647 54.3962 5.31113L53.928 5.34119V5.25431C53.928 5.15582 54.1903 4.64672 54.4522 4.2371C55.3465 2.83826 56.5524 1.8592 57.4602 1.79482C57.6839 1.77895 57.7593 1.79004 57.966 1.8692C58.474 2.06375 59.0715 2.57355 59.4476 3.13322C59.8847 3.7837 60.3 5.01934 60.3019 5.67488C60.3026 5.88524 60.3229 5.88302 59.7439 5.73547Z" fill="#292929"/>
</g>
</svg>
